<svg xmlns="http://www.w3.org/2000/svg" xmlns:xlink="http://www.w3.org/1999/xlink" viewBox="0 0 430.3900146 112.4199982"><defs><style> .cls-1 { fill: url(#linear-gradient); } .cls-2 { fill: #fff; } </style><linearGradient id="linear-gradient" x1="46.9400024" y1="112.1696548" x2="46.9400024" y2=".2503433" gradientUnits="userSpaceOnUse"><stop offset="0" stop-color="#26d07c"></stop><stop offset="1" stop-color="#01afb9"></stop></linearGradient></defs><g><g id="Layer_1"><g><path class="cls-2" d="M123.1600037,74.6299973c0-4.4599991,2.5400009-6.3799973,6.1499939-6.3799973,5.3099976,0,4.7700043,4.5400009,5.7700043,8.9199982.9199982,3.6900024,1.9199982,6.9199982,6.8500061,6.9199982,5.3800049,0,7.5399933-4.8499985,7.5399933-12.5400009,0-9.3100014-3.9199982-13.9199982-9.6900024-13.9199982-3.7700043,0-8.1499939,1.7700005-10.6100006,6.0800018h-2.8499985l1.8499985-24.6900024h14.6100006c7.4600067,0,12.6900024-.3100014,14.7700043-1.0800018l-1.0800018,11.2299995h-25.5400085l-.6199951,8.7700005c3.6900024-3.0800018,8.2299957-4.0800018,13.2299957-4.0800018,8.8399963,0,18.3800049,3.7700005,18.3800049,15.7699966,0,11.1500015-8.4600067,17.9199982-20.2299957,17.9199982-10.2299957,0-18.5400009-4.6900024-18.5400009-12.9199982l.0100021.0000076Z"></path><path class="cls-2" d="M167.3500061,75.7900009v-16.8499985c0-2.6899986-.6199951-3.2299995-2.3800049-3.2299995h-3.4600067v-2.4599991c6.3800049-1.4599991,9.4600067-4.3800011,12.0800018-8.6100006.6199951-1,1.1499939-1.3100014,2.1499939-1.3100014h1.3800049c1.1499939,0,1.8500061.6899986,1.8500061,1.8499985l-.0800018,4.7700005c0,1.6899986.8500061,2.1500015,4.7700043,2.1500015h5v4.079998l-5-.3100014c-3.9199982-.2299995-4.7700043.4599991-4.7700043,3.2299995v16.3099976c0,4.2300034.4600067,7.0800018,4.2299957,7.0800018,1,0,2.5399933-.1500015,4-1.2300034,1,1.2300034,1.3800049,2.3099976.3800049,3.2300034-1.7700043,1.5400009-4.9199982,2.6900024-8.7700043,2.6900024-7.0800018,0-11.3800049-3.9199982-11.3800049-11.3799973l.0000153-.0100021Z"></path><path class="cls-2" d="M218.0399933,78.7900009v-12.4599991c0-4.5400009-2.2299957-8.3800011-6.3800049-8.3800011s-6.3800049,3.8499985-6.3800049,8.3800011v11.9199982c0,4.1500015,1.3099976,5.3099976,4.7700043,5.5400009v3h-21.2299957v-3c3.6199951-.2300034,4.9199982-1.3799973,4.9199982-5.5400009v-32.6100006c0-3.6100006-2-4.2299995-4.8500061-4v-3l12.5399933-2.0800018c2.6199951-.3800011,3.8500061.7700005,3.8500061,3.0800018v14.3800011c0,2.6199989,1.6900024,3.079998,2.6199951,1.8499985,1.9199982-2.5400009,4.5399933-4.7700005,10.2299957-4.7700005s11.4600067,2.2299995,11.4600067,13.4599991v14.3799973c0,2.5400009,1,4.2300034,3.2299957,3.3099976v1.6900024c-1.0800018,2.6200027-3.8500061,3.3099976-6.3099976,3.3099976-4.9199982,0-8.4600067-2.7699966-8.4600067-8.4599991l-.0099792.0000076Z"></path><path class="cls-2" d="M225.1999969,42.0999985v-3.0800018h22.6100006v3.0800018c-4.4600067.6199989-4.6100006,3.6199989-3.2299957,6.9199982l8.1499939,19.4599991c.5399933,1.3099976,1,1.3099976,1.5399933,0l3-7.9199982c1.6900024-4.2299995,4.1499939-6.9199982,2.0799866-11.8400002-1.5400085-3.5400009-2.6199951-5.6899986-5.7700043-6.6199989v-3.0800018h22.6100006v3.0800018c-4.4599915.6199989-4.6099854,3.6199989-3.230011,6.9199982l8.230011,19.4599991c.5400085,1.3099976,1,1.3099976,1.5400085,0l7.230011-18.9199982c1.6199951-4.0800018-.0799866-6.6899986-5.3800049-7.4599991v-3.0800018h19v3.0800018c-4.8500061.9199982-6.6199951,4.1500015-8.3800049,8.4599991l-10.6900024,27.3000031c-1.5400085,4.0800018-2.3099976,7.4599991-2.3099976,8.9199982h-6.6099854l-12-28-7.4599915,19.0699997c-1.6199951,4.0800018-2.3800049,7.4599991-2.3800049,8.9199982h-6.6199951l-14.6900024-34.4599991c-2.5399933-6.1500015-3.3099976-9.1500015-7.2299957-10.2299995l-.0100098.0200005Z"></path><path class="cls-2" d="M295.019989,69.0899963c0-12.3800011,9.6099854-17.6900024,18.8399963-17.6900024s19.0700073,5.6899986,19.0700073,18.1500015-9.5400085,17.6900024-18.8399963,17.6900024-19.0700073-5.6900024-19.0700073-18.1500015ZM315.3999939,83.6999969c3,0,5.230011-3,5.230011-10.9199982,0-9.4599991-3-17.9199982-8.0799866-17.9199982-3.0799866,0-5.230011,3.0800018-5.230011,10.8399963,0,9.5400009,3.1499939,18,8.0799866,18Z"></path><path class="cls-2" d="M337.4200134,78.25v-17.6100006c0-3.6100006-2-4.2299995-4.8500061-4v-3l12.5400085-2.0800018c2.6199951-.3800011,3.8500061.7700005,3.8500061,2.4599991v1.1500015c0,1.8499985,1.3800049,1.9199982,2.4599915.5400009,2.1499939-2.5400009,4.769989-4.6100006,8.769989-4.6100006,4.769989,0,8.769989,3.0800018,8.769989,7.7700005,0,3.6100006-2.5400085,6.5399971-6.8500061,6.5399971-7.6900024,0-2.4599915-8.4599991-7.0799866-8.4599991-3.230011,0-6.0799866,4-6.0799866,14.0800018v7.2300034c0,4.1500015,1.3099976,5.3099976,5.3099976,5.5400009v3h-21.769989v-3c3.6199951-.2300034,4.9200134-1.3799973,4.9200134-5.5400009l.0099792-.0100021Z"></path><path class="cls-2" d="M372.0299988,78.7900009v-33.1500015c0-3.6100006-2-4.2299995-4.8500061-4v-3l12.5400085-2.0800018c2.6099854-.3800011,3.8500061.7700005,3.8500061,3.0800018v39.3000031c0,2.5400009,1,4.2300034,3.230011,3.3099976v1.6900024c-1.0799866,2.6200027-3.8500061,3.3099976-6.3099976,3.3099976-4.8500061,0-8.4599915-2.7699966-8.4599915-8.4599991h-.0000305Z"></path><path class="cls-2" d="M388.3900146,69.9400024c0-12.2299995,8.3800049-18.5400009,16.5400085-18.5400009s10.6900024,6.6199989,10.6900024-1.1500015v-4.6100006c0-3.6100006-2-4.2299995-4.8500061-4v-3l12.5400085-2.0800018c2.6199951-.3800011,3.8500061.7700005,3.8500061,3.0800018v39.3000031c0,2.5400009,1,4.2300034,3.230011,3.3099976v1.6900024c-1.0799866,2.6200027-3.8500061,3.3099976-6.230011,3.3099976-2.6099854,0-5.9200134-.8499985-6.8500061-3.1500015-.6199951-1.4599991-1.3099976-2.2300034-2.4599915-2.2300034-1.5400085,0-4.6099854,5.3799973-11.769989,5.3799973s-14.6900024-5.9199982-14.6900024-17.3099976l-.0000305.0000076ZM409.0800171,81.0200043c3,0,6.5400085-2.1500015,6.5400085-8.6100006v-3.6200027c0-10-4.6900024-13.9199982-8.5400085-13.9199982s-6.3099976,4.8499985-6.3099976,11.0800018c0,7.6100006,3.3800049,15.0800018,8.3099976,15.0800018v-.0100021Z"></path></g><g><path class="cls-1" d="M9.0126343,87.6328506c-1.1079102,0-2.2017822.0576782-3.2854614.1512451,7.5802002,13.8661499,21.9526978,23.4852295,38.6447754,24.3855591-5.3527832-14.3303833-19.1621094-24.5368042-35.359314-24.5368042Z"></path><path class="cls-1" d="M93.347229,40.1050797h-20.4554443c-2.8037109,0-4.2078247-3.3897705-2.2252808-5.3723145l14.6109619-14.6109619c-2.9460449-4.1647339-6.5484619-7.8292236-10.6643066-10.8389893l-14.6983032,14.6983032c-1.9825439,1.9825439-5.3723145.5784302-5.3723145-2.2252808V.8722916c-2.4755249-.4033203-5.0130005-.6219482-7.6025391-.6219482s-5.1270142.2186279-7.6025391.6219482v20.8835449c0,2.8037109-3.3897705,4.2078247-5.3723145,2.2252808l-14.6983032-14.6983032c-4.1158447,3.0097656-7.7182617,6.6742554-10.6643066,10.8389893l14.6109619,14.6109619c1.9825439,1.9825439.5784302,5.3723145-2.2252808,5.3723145H.5327759c-.3499146,2.3109131-.5327759,4.6766968-.5327759,7.0852661v8.119812h34.8747559c-.0582275-.482605-.097229-.9710083-.097229-1.4692993,0-6.7171631,5.4453125-12.1624756,12.1624756-12.1624756s12.1624756,5.4453125,12.1624756,12.1624756c0,.498291-.0390015.9866943-.097229,1.4692993h34.8747559v-8.119812c0-2.4085693-.1828613-4.774353-.5327759-7.0852661Z"></path><path class="cls-1" d="M46.9457397,79.0037613c-10.3287964-8.4638672-23.5361938-13.5441284-37.9331055-13.5441284-3.0563965,0-6.0583496.2319946-8.9916382.6735229.0915527,5.2537842,1.0390015,10.2974854,2.7210693,14.9945679,2.0499268-.2879639,4.1412354-.4468994,6.2705688-.4468994,20.0256348,0,36.9731445,13.1723022,42.6553345,31.324585l.0852661-.034729c15.7285767-1.6033325,29.1652222-10.9472046,36.402832-24.1865845-1.0836792-.0935669-2.1775513-.1512451-3.2854614-.1512451-8.9634399,0-17.1879883,3.1337891-23.6589355,8.3551636-1.1470947-2.0340576-2.4088135-3.9938965-3.777832-5.8717041,7.5726318-5.9050903,17.0861206-9.4354858,27.4335327-9.4354858,2.1293335,0,4.2206421.1589355,6.2705688.4468994,1.6820679-4.6970825,2.6295166-9.7407837,2.7210693-14.9945679-2.9332886-.4415283-5.9352417-.6735229-8.9916382-.6735229-14.3939819,0-27.5946655,5.0824585-37.9216309,13.5441284Z"></path></g></g></g></svg>