<svg xmlns="http://www.w3.org/2000/svg" width="90" height="90" viewBox="0 0 90 90" fill="none"><circle cx="45" cy="45" r="45" fill="url(#paint0_linear_4154_6231)"></circle><g clip-path="url(#clip0_4154_6231)"><path d="M55.5364 19.6874V17.5624" stroke="white" stroke-width="1.875" stroke-linecap="round" stroke-linejoin="round"></path><path d="M62.3044 21.2281L63.3244 19.475" stroke="white" stroke-width="1.875" stroke-linecap="round" stroke-linejoin="round"></path><path d="M67.3296 26.2536L69.0827 25.2336" stroke="white" stroke-width="1.875" stroke-linecap="round" stroke-linejoin="round"></path><path d="M69.3486 33.4998H71.4736" stroke="white" stroke-width="1.875" stroke-linecap="round" stroke-linejoin="round"></path><path d="M67.3296 39.9597L69.0827 40.9691" stroke="white" stroke-width="1.875" stroke-linecap="round" stroke-linejoin="round"></path><path d="M62.3044 44.9749L63.3244 46.728" stroke="white" stroke-width="1.875" stroke-linecap="round" stroke-linejoin="round"></path><path d="M48.5975 21.2281L47.5881 19.475" stroke="white" stroke-width="1.875" stroke-linecap="round" stroke-linejoin="round"></path><path d="M43.5831 26.2536L41.8193 25.2336" stroke="white" stroke-width="1.875" stroke-linecap="round" stroke-linejoin="round"></path><path d="M46.4094 29.1436C46.8769 28.0599 47.525 27.0824 48.3325 26.243C50.1388 24.3517 52.6782 23.1724 55.5044 23.1724C60.9657 23.1724 65.3963 27.603 65.3963 33.0642C65.3963 36.6555 63.4838 39.8005 60.6257 41.5324C60.3494 41.7024 60.0626 41.8511 59.7651 41.9999" stroke="white" stroke-width="1.875" stroke-linecap="round" stroke-linejoin="round"></path><path d="M28.9739 43.0623H50.2239" stroke="white" stroke-width="1.875" stroke-linecap="round" stroke-linejoin="round"></path><path d="M26.8489 52.6248H52.3489" stroke="white" stroke-width="1.875" stroke-linecap="round" stroke-linejoin="round"></path><path d="M50.2239 66.4374H28.9739" stroke="white" stroke-width="1.875" stroke-linecap="round" stroke-linejoin="round"></path><path d="M24.2772 60.0624C23.2572 60.0624 22.5135 59.3399 22.6091 58.4474L25.5735 36.188C25.6691 35.2955 26.4235 34.573 27.2522 34.573H52.1572C52.986 34.573 53.7297 35.2955 53.8254 36.188L56.5879 58.4474C56.6835 59.3399 55.9291 60.0624 54.9091 60.0624H24.2772Z" stroke="white" stroke-width="1.875" stroke-linecap="round" stroke-linejoin="round"></path><path d="M32.0015 56.8749L34.4558 37.7499" stroke="white" stroke-width="1.875" stroke-linecap="round" stroke-linejoin="round"></path><path d="M45.804 56.8749L43.3496 37.7499" stroke="white" stroke-width="1.875" stroke-linecap="round" stroke-linejoin="round"></path><path d="M39.5989 60.0623V66.4373" stroke="white" stroke-width="1.875" stroke-linecap="round" stroke-linejoin="round"></path></g><defs><linearGradient id="paint0_linear_4154_6231" x1="45" y1="0" x2="45" y2="90" gradientUnits="userSpaceOnUse"><stop stop-color="#00A9C0"></stop><stop offset="1" stop-color="#26D07C"></stop></linearGradient><clipPath id="clip0_4154_6231"><rect width="51" height="51" fill="white" transform="translate(21.5361 16.5)"></rect></clipPath></defs></svg>