<svg xmlns="http://www.w3.org/2000/svg" width="91" height="91" viewBox="0 0 91 91" fill="none"><circle cx="45.4445" cy="45.4445" r="45.4445" fill="url(#paint0_linear_4154_6262)"></circle><g clip-path="url(#clip0_4154_6262)"><path d="M46.0318 37.9268C46.1605 36.8646 46.064 35.7487 45.6992 34.6435C44.4438 30.8344 40.4844 28.7098 36.8577 29.9008C35.6559 30.2979 34.658 31.006 33.8855 31.9073C32.7267 31.6391 31.4927 31.6606 30.291 32.0576C27.6299 32.9267 25.8917 35.3409 25.6449 38.0771" stroke="white" stroke-width="1.89352" stroke-linecap="round" stroke-linejoin="round"></path><path d="M33.8964 31.9075C33.8964 31.9075 32.8019 28.1091 34.4973 26.2528" stroke="white" stroke-width="1.89352" stroke-linecap="round" stroke-linejoin="round"></path><path d="M67.609 28.1414L70.5919 25.7271L66.5575 21.7356L64.0789 24.7722" stroke="white" stroke-width="1.89352" stroke-linecap="round" stroke-linejoin="round"></path><path d="M48.9176 38.0772L53.9929 29.461C55.1517 27.358 58.2956 25.7914 60.86 26.521L61.0424 26.5747C63.5211 27.2721 65.5705 29.3752 66.1928 31.8538C66.8259 34.3324 65.2593 37.3583 63.2313 38.4742" stroke="white" stroke-width="1.89352" stroke-linecap="round" stroke-linejoin="round"></path><path d="M53.7994 29.7828L57.6515 33.6349" stroke="white" stroke-width="1.89352" stroke-linecap="round" stroke-linejoin="round"></path><path d="M52.0831 32.7123L54.8729 35.5021" stroke="white" stroke-width="1.89352" stroke-linecap="round" stroke-linejoin="round"></path><path d="M55.5703 52.8202H21.2345V42.0902H66.3003V52.8202H60.9353" stroke="white" stroke-width="1.89352" stroke-linecap="round" stroke-linejoin="round"></path><path d="M66.3003 52.8202V64.6231H21.2345V52.8202" stroke="white" stroke-width="1.89352" stroke-linecap="round" stroke-linejoin="round"></path><path d="M30.8915 59.2579C30.8915 60.4382 29.9258 61.4039 28.7455 61.4039C27.5652 61.4039 26.5995 60.4382 26.5995 59.2579C26.5995 58.0776 27.5652 57.1119 28.7455 57.1119C29.9258 57.1119 30.8915 58.0776 30.8915 59.2579Z" stroke="white" stroke-width="1.89352" stroke-linecap="round" stroke-linejoin="round"></path><path d="M56.3425 59.0865C56.3425 60.1166 57.1795 60.9535 58.2095 60.9535C59.2396 60.9535 60.0765 60.1166 60.0765 59.0865C60.0765 58.0564 59.2396 57.2195 58.2095 57.2195C57.1795 57.2195 56.3425 58.0564 56.3425 59.0865Z" stroke="white" stroke-width="1.89352" stroke-linecap="round" stroke-linejoin="round"></path><path d="M30.8915 47.4553C30.8915 48.6356 29.9258 49.6013 28.7455 49.6013C27.5652 49.6013 26.5995 48.6356 26.5995 47.4553C26.5995 46.275 27.5652 45.3093 28.7455 45.3093C29.9258 45.3093 30.8915 46.275 30.8915 47.4553Z" stroke="white" stroke-width="1.89352" stroke-linecap="round" stroke-linejoin="round"></path><path d="M56.3425 47.2835C56.3425 48.3136 57.1795 49.1505 58.2095 49.1505C59.2396 49.1505 60.0765 48.3136 60.0765 47.2835C60.0765 46.2534 59.2396 45.4165 58.2095 45.4165C57.1795 45.4165 56.3425 46.2534 56.3425 47.2835Z" stroke="white" stroke-width="1.89352" stroke-linecap="round" stroke-linejoin="round"></path><path d="M41.2777 25.802C41.8571 23.5702 43.0267 21.4349 44.7435 20.04C47.2972 17.9584 47.9303 23.3341 49.5612 24.1174C50.2909 24.4715 50.9561 24.89 51.439 26.0917" stroke="white" stroke-width="1.89352" stroke-linecap="round" stroke-linejoin="round"></path><path d="M44.8403 24.9224V27.0684" stroke="white" stroke-width="1.89352" stroke-linecap="round" stroke-linejoin="round"></path><path d="M48.0593 28.1411V30.2871" stroke="white" stroke-width="1.89352" stroke-linecap="round" stroke-linejoin="round"></path><path d="M65.0982 23.5274L62.0294 22.0466L61.3964 23.5274" stroke="white" stroke-width="1.89352" stroke-linecap="round" stroke-linejoin="round"></path><path d="M68.9293 27.0685L70.3564 29.9226L68.9293 30.5128" stroke="white" stroke-width="1.89352" stroke-linecap="round" stroke-linejoin="round"></path></g><defs><linearGradient id="paint0_linear_4154_6262" x1="45.4445" y1="0" x2="45.4445" y2="90.8889" gradientUnits="userSpaceOnUse"><stop stop-color="#00A9C0"></stop><stop offset="1" stop-color="#26D07C"></stop></linearGradient><clipPath id="clip0_4154_6262"><rect width="51.5037" height="51.5037" fill="white" transform="translate(20.1615 16.3384)"></rect></clipPath></defs></svg>