<svg xmlns="http://www.w3.org/2000/svg" width="90" height="90" viewBox="0 0 90 90" fill="none"><circle cx="45" cy="45" r="45" fill="url(#paint0_linear_4154_6284)"></circle><path d="M20.5625 47.0002C36.5 47.0002 48.1875 52.3127 56.6875 66.1252" stroke="white" stroke-width="1.875" stroke-linecap="round" stroke-linejoin="round"></path><path d="M69.4375 47.0002H20.5625" stroke="white" stroke-width="1.875" stroke-linecap="round" stroke-linejoin="round"></path><path d="M69.4375 53.3751H51.375" stroke="white" stroke-width="1.875" stroke-linecap="round" stroke-linejoin="round"></path><path d="M69.4375 59.75H57.75" stroke="white" stroke-width="1.875" stroke-linecap="round" stroke-linejoin="round"></path><path d="M69.4375 66.1252H59.875" stroke="white" stroke-width="1.875" stroke-linecap="round" stroke-linejoin="round"></path><path d="M20.5625 52.3126C20.5625 52.3126 39.2006 51.737 49.25 66.1251" stroke="white" stroke-width="1.875" stroke-linecap="round" stroke-linejoin="round"></path><path d="M20.5625 57.6252C20.5625 57.6252 32.8256 58.245 40.75 66.1252" stroke="white" stroke-width="1.875" stroke-linecap="round" stroke-linejoin="round"></path><path d="M20.5625 62.9376C20.5625 62.9376 26.7909 63.2228 30.6563 66.1251" stroke="white" stroke-width="1.875" stroke-linecap="round" stroke-linejoin="round"></path><path d="M37.3446 25.9235C42.3568 29.348 44.9996 33.7698 44.9996 38.8149V46.7346" stroke="white" stroke-width="1.875" stroke-linecap="round" stroke-linejoin="round"></path><path d="M41.7927 24.6852C41.4888 22.3161 39.8696 19.3752 34.1997 19.3752C30.8808 19.3752 27.7198 21.5352 27.7198 21.5352C28.6648 24.6401 32.141 31.2549 36.3597 31.2549C37.9968 31.2549 39.8608 30.747 40.9532 28.9867" stroke="white" stroke-width="1.875" stroke-linecap="round" stroke-linejoin="round"></path><path d="M54.6187 24.7018C48.3352 28.266 45 33.1473 45 38.8149V47.0003" stroke="white" stroke-width="1.875" stroke-linecap="round" stroke-linejoin="round"></path><path d="M48.7115 22.8838C49.5538 21.0462 51.526 19.3752 55.8 19.3752C59.1188 19.3752 62.2799 21.5352 62.2799 21.5352C61.3349 24.6401 57.8587 31.2549 53.6401 31.2549C52.003 31.2549 50.1389 30.747 49.0464 28.9867" stroke="white" stroke-width="1.875" stroke-linecap="round" stroke-linejoin="round"></path><path d="M26.8379 47V41.6875" stroke="white" stroke-width="1.875" stroke-linecap="round" stroke-linejoin="round"></path><path d="M35.4043 47V39.5625" stroke="white" stroke-width="1.875" stroke-linecap="round" stroke-linejoin="round"></path><path d="M54.4629 47V39.5625" stroke="white" stroke-width="1.875" stroke-linecap="round" stroke-linejoin="round"></path><path d="M63.0293 47V41.6875" stroke="white" stroke-width="1.875" stroke-linecap="round" stroke-linejoin="round"></path><defs><linearGradient id="paint0_linear_4154_6284" x1="45" y1="0" x2="45" y2="90" gradientUnits="userSpaceOnUse"><stop stop-color="#00A9C0"></stop><stop offset="1" stop-color="#26D07C"></stop></linearGradient></defs></svg>