<svg xmlns="http://www.w3.org/2000/svg" width="91" height="91" viewBox="0 0 91 91" fill="none"><circle cx="45.3333" cy="45.3333" r="45.3333" fill="url(#paint0_linear_4154_6252)"></circle><g clip-path="url(#clip0_4154_6252)"><path d="M59.2545 50.7537C60.0358 51.5886 60.464 52.4984 60.464 53.451C60.464 57.315 53.4531 60.4619 44.7938 60.4619C36.1345 60.4619 29.1235 57.3257 29.1235 53.451C29.1235 52.4984 29.5517 51.5778 30.3331 50.7537" stroke="white" stroke-width="1.88889" stroke-linecap="round" stroke-linejoin="round"></path><path d="M44.7933 18.4391C44.7933 18.4391 55.497 34.2592 55.497 42.9613C55.497 53.0121 47.9616 54.8317 44.7933 54.8317C41.625 54.8317 34.0896 53.0121 34.0896 42.9613C34.0896 34.2592 44.7933 18.4391 44.7933 18.4391Z" stroke="white" stroke-width="1.88889" stroke-linecap="round" stroke-linejoin="round"></path><path d="M51.2156 45.1982C50.7125 48.5378 48.8715 49.94 47.2445 50.518" stroke="white" stroke-width="1.88889" stroke-linecap="round" stroke-linejoin="round"></path><path d="M36.4016 65.5354C26.9395 63.7479 20.1748 59.0168 20.1748 53.4616C20.1748 49.3621 23.8569 45.7121 29.5834 43.3573" stroke="white" stroke-width="1.88889" stroke-linecap="round" stroke-linejoin="round"></path><path d="M53.1848 65.5354C62.6469 63.7479 69.4116 59.0168 69.4116 53.4616C69.4116 49.3621 65.7296 45.7121 60.0031 43.3573" stroke="white" stroke-width="1.88889" stroke-linecap="round" stroke-linejoin="round"></path></g><defs><linearGradient id="paint0_linear_4154_6252" x1="45.3333" y1="0" x2="45.3333" y2="90.6667" gradientUnits="userSpaceOnUse"><stop stop-color="#00A9C0"></stop><stop offset="1" stop-color="#26D07C"></stop></linearGradient><clipPath id="clip0_4154_6252"><rect width="51.3778" height="51.3778" fill="white" transform="translate(19.1045 16.2985)"></rect></clipPath></defs></svg>